<svg xmlns="http://www.w3.org/2000/svg" width="24" height="24" viewBox="10 10 16 16" fill="none">
<path id="Vector" d="M21.3333 11.3335H14.6667C12.8257 11.3335 11.3333 12.8259 11.3333 14.6668V21.3335C11.3333 23.1744 12.8257 24.6668 14.6667 24.6668H21.3333C23.1743 24.6668 24.6667 23.1744 24.6667 21.3335V14.6668C24.6667 12.8259 23.1743 11.3335 21.3333 11.3335Z" stroke="#ffffff" stroke-width="1.33333" stroke-linecap="round" stroke-linejoin="round"/>
<path id="Vector_2" d="M20.6667 17.5802C20.7489 18.135 20.6542 18.7017 20.3958 19.1995C20.1375 19.6974 19.7288 20.1011 19.2277 20.3533C18.7267 20.6055 18.159 20.6933 17.6052 20.6042C17.0514 20.515 16.5398 20.2536 16.1432 19.857C15.7466 19.4604 15.4851 18.9488 15.396 18.395C15.3069 17.8412 15.3947 17.2735 15.6469 16.7725C15.8991 16.2714 16.3028 15.8627 16.8006 15.6044C17.2985 15.346 17.8652 15.2513 18.42 15.3335C18.9859 15.4175 19.5099 15.6812 19.9145 16.0857C20.319 16.4903 20.5827 17.0143 20.6667 17.5802Z" stroke="#ffffff" stroke-width="1.33333" stroke-linecap="round" stroke-linejoin="round"/>
<path id="Vector_3" d="M21.6667 14.3335H21.6733" stroke="#ffffff" stroke-width="1.33333" stroke-linecap="round" stroke-linejoin="round"/>
</svg>
