<svg xmlns="http://www.w3.org/2000/svg" width="24" height="24" viewBox="10 10 16 16" fill="none">
<path id="Vector" d="M20.6667 15.3335C21.7275 15.3335 22.745 15.7549 23.4951 16.5051C24.2452 17.2552 24.6667 18.2726 24.6667 19.3335V24.0002H22V19.3335C22 18.9799 21.8595 18.6407 21.6095 18.3907C21.3594 18.1406 21.0203 18.0002 20.6667 18.0002C20.313 18.0002 19.9739 18.1406 19.7239 18.3907C19.4738 18.6407 19.3333 18.9799 19.3333 19.3335V24.0002H16.6667V19.3335C16.6667 18.2726 17.0881 17.2552 17.8382 16.5051C18.5884 15.7549 19.6058 15.3335 20.6667 15.3335Z" stroke="#ffffff" stroke-width="1.33333" stroke-linecap="round" stroke-linejoin="round"/>
<path id="Vector_2" d="M14 16H11.3333V24H14V16Z" stroke="#ffffff" stroke-width="1.33333" stroke-linecap="round" stroke-linejoin="round"/>
<path id="Vector_3" d="M12.6667 14.0002C13.403 14.0002 14 13.4032 14 12.6668C14 11.9304 13.403 11.3335 12.6667 11.3335C11.9303 11.3335 11.3333 11.9304 11.3333 12.6668C11.3333 13.4032 11.9303 14.0002 12.6667 14.0002Z" stroke="#ffffff" stroke-width="1.33333" stroke-linecap="round" stroke-linejoin="round"/>
</svg>
