<svg xmlns="http://www.w3.org/2000/svg" width="20" height="20" viewBox="9 9 14 14" fill="none">
<path id="Vector" d="M16.3506 21.7159C17.4356 20.7791 20.6666 17.7458 20.6666 14.8332C20.6666 13.5955 20.175 12.4085 19.2998 11.5333C18.4246 10.6582 17.2377 10.1665 16 10.1665C14.7623 10.1665 13.5753 10.6582 12.7001 11.5333C11.825 12.4085 11.3333 13.5955 11.3333 14.8332C11.3333 17.7458 14.5644 20.7791 15.6494 21.7159C15.7505 21.7919 15.8735 21.833 16 21.833C16.1264 21.833 16.2495 21.7919 16.3506 21.7159Z" stroke="#0560C3" stroke-width="1.16667" stroke-linecap="round" stroke-linejoin="round"/>
<path id="Vector_2" d="M16 16.5835C16.9665 16.5835 17.75 15.8 17.75 14.8335C17.75 13.867 16.9665 13.0835 16 13.0835C15.0335 13.0835 14.25 13.867 14.25 14.8335C14.25 15.8 15.0335 16.5835 16 16.5835Z" stroke="#0560C3" stroke-width="1.16667" stroke-linecap="round" stroke-linejoin="round"/>
</svg>
