<svg xmlns="http://www.w3.org/2000/svg" width="20" height="20" viewBox="9 9 14 14" fill="none">
<path id="Vector" d="M21.8333 18.8699V20.6199C21.834 20.7824 21.8007 20.9432 21.7356 21.092C21.6705 21.2409 21.5751 21.3745 21.4554 21.4843C21.3357 21.5941 21.1943 21.6778 21.0404 21.7298C20.8865 21.7819 20.7235 21.8012 20.5617 21.7866C18.7667 21.5915 17.0424 20.9781 15.5275 19.9957C14.1181 19.1001 12.9231 17.9052 12.0275 16.4957C11.0417 14.9739 10.4281 13.2413 10.2367 11.4382C10.2221 11.2769 10.2413 11.1143 10.293 10.9608C10.3447 10.8073 10.4278 10.6663 10.5369 10.5467C10.6461 10.427 10.7791 10.3315 10.9272 10.266C11.0754 10.2006 11.2355 10.1667 11.3975 10.1666H13.1475C13.4306 10.1638 13.705 10.264 13.9197 10.4486C14.1343 10.6332 14.2745 10.8896 14.3142 11.1699C14.388 11.7299 14.525 12.2798 14.7225 12.8091C14.801 13.0178 14.818 13.2448 14.7714 13.4629C14.7249 13.6811 14.6168 13.8813 14.46 14.0399L13.7192 14.7807C14.5496 16.2411 15.7588 17.4503 17.2192 18.2807L17.96 17.5399C18.1186 17.3831 18.3188 17.275 18.537 17.2284C18.7551 17.1819 18.982 17.1989 19.1908 17.2774C19.7201 17.4749 20.27 17.6119 20.83 17.6857C21.1134 17.7257 21.3722 17.8684 21.5571 18.0868C21.7421 18.3051 21.8404 18.5838 21.8333 18.8699Z" stroke="#0560C3" stroke-width="1.16667" stroke-linecap="round" stroke-linejoin="round"/>
</svg>
