<svg xmlns="http://www.w3.org/2000/svg" width="24" height="24" viewBox="10 10 16 16" fill="none">
<path id="Vector" d="M11.6667 14.6667C11.201 16.8645 11.201 19.1355 11.6667 21.3333C11.7279 21.5565 11.8461 21.7599 12.0097 21.9236C12.1734 22.0872 12.3768 22.2055 12.6 22.2667C16.1756 22.8591 19.8244 22.8591 23.4 22.2667C23.6232 22.2055 23.8266 22.0872 23.9903 21.9236C24.1539 21.7599 24.2721 21.5565 24.3333 21.3333C24.7991 19.1355 24.7991 16.8645 24.3333 14.6667C24.2721 14.4435 24.1539 14.24 23.9903 14.0764C23.8266 13.9128 23.6232 13.7945 23.4 13.7333C19.8244 13.141 16.1756 13.141 12.6 13.7333C12.3768 13.7945 12.1734 13.9128 12.0097 14.0764C11.8461 14.24 11.7279 14.4435 11.6667 14.6667Z" stroke="#ffffff" stroke-width="1.33333" stroke-linecap="round" stroke-linejoin="round"/>
<path id="Vector_2" d="M16.6667 20L20 18L16.6667 16V20Z" stroke="#ffffff" stroke-width="1.33333" stroke-linecap="round" stroke-linejoin="round"/>
</svg>
