<svg width="41" height="41" viewBox="0 0 41 41" fill="none" xmlns="http://www.w3.org/2000/svg">
<path d="M10.3665 6.18885C10.2203 3.70669 12.9842 2.13419 15.0434 3.52787L18.1645 5.64068C20.6175 7.301 23.7304 7.64771 26.4888 6.56835L29.9983 5.19509C32.3138 4.28904 34.6634 6.4314 33.9744 8.82032L32.9294 12.4418C32.1084 15.2878 32.7405 18.3553 34.6194 20.6452L37.0099 23.5591C38.5869 25.4813 37.2755 28.3771 34.7906 28.4599L31.0238 28.5852C28.0634 28.6838 25.3409 30.2329 23.7437 32.7274L21.7116 35.9015C20.3709 37.9955 17.2114 37.6434 16.3648 35.3056L15.0811 31.7619C14.0725 28.9768 11.7577 26.8667 8.89162 26.1186L5.24538 25.1663C2.83966 24.5383 2.19799 21.4244 4.15944 19.8966L7.13379 17.5807C9.47073 15.7609 10.7632 12.9078 10.5891 9.95089L10.3665 6.18885Z" stroke="white" stroke-width="6"/>
</svg>
