<svg width="55" height="57" viewBox="0 0 55 57" fill="none" xmlns="http://www.w3.org/2000/svg">
<path d="M31.8893 3.80288C33.7173 2.11757 36.6839 3.25955 36.9101 5.73553L37.7426 14.8542C38.0119 17.8042 39.7152 20.4331 42.2979 21.8837L50.2816 26.3674C52.4495 27.5851 52.2797 30.76 49.9945 31.7401L41.5794 35.3497C38.8573 36.5174 36.8842 38.9497 36.3027 41.8541L34.505 50.8331C34.0166 53.2708 30.9443 54.0905 29.3061 52.2202L23.2733 45.3324C21.3215 43.1041 18.3985 41.979 15.4564 42.3235L6.36229 43.3884C3.89283 43.6776 2.16316 41.0095 3.43533 38.8734L8.12209 31.0066C9.63813 28.4619 9.80524 25.3344 8.56855 22.6428L4.74567 14.3225C3.70748 12.0632 5.7103 9.59383 8.1351 10.144L17.0646 12.1707C19.9534 12.8262 22.9798 12.0179 25.1575 10.0098L31.8893 3.80288Z" stroke="#FFBD4A" stroke-width="6"/>
</svg>
