<svg width="88" height="91" viewBox="0 0 88 91" fill="none" xmlns="http://www.w3.org/2000/svg">
<path d="M33.6433 5.40323C34.1417 2.96721 37.2175 2.16009 38.8479 4.03744L52.5971 19.8698C54.5393 22.1062 57.4576 23.2435 60.401 22.9114L81.2379 20.5612C83.7085 20.2828 85.426 22.9583 84.1444 25.0889L73.3357 43.0576C71.8566 45.5167 71.6413 48.5283 72.7435 51.1659L72.8544 51.4194L81.529 70.5098C82.5576 72.7736 80.5432 75.2339 78.1207 74.6734L57.6924 69.9469C54.8066 69.2792 51.7769 70.0743 49.5908 72.0729L34.1146 86.2213C32.2795 87.8992 29.3174 86.7447 29.102 84.2676L27.2841 63.3779C27.0274 60.427 25.3354 57.7913 22.759 56.3298L4.52003 45.9837C2.35725 44.7569 2.54047 41.5824 4.82979 40.612L24.1348 32.4283C26.8621 31.2722 28.8469 28.8485 29.4407 25.9464L33.6433 5.40323Z" fill="#F9A825" stroke="#FFBD4A" stroke-width="6"/>
</svg>
