<svg width="75" height="72" viewBox="0 0 75 72" fill="none" xmlns="http://www.w3.org/2000/svg">
<path d="M33.1393 5.50358C34.5516 1.49919 40.2153 1.4992 41.6276 5.50358L47.3112 21.6188C48.3588 24.5889 50.81 26.8469 53.8561 27.6471L68.9098 31.6012C73.3855 32.7769 73.3855 39.1307 68.9098 40.3063L53.8561 44.2604C50.81 45.0607 48.3588 47.3186 47.3112 50.2887L41.6276 66.404C40.2153 70.4084 34.5516 70.4084 33.1393 66.404L27.4557 50.2887C26.4081 47.3186 23.9569 45.0607 20.9108 44.2604L5.85711 40.3063C1.38143 39.1307 1.38145 32.7769 5.85711 31.6012L20.9108 27.6471C23.9569 26.8469 26.4081 24.5889 27.4557 21.6188L33.1393 5.50358Z" fill="#FFBD4A" stroke="#FFBD4A" stroke-width="5"/>
</svg>
