<svg width="86" height="86" viewBox="0 0 86 86" fill="none" xmlns="http://www.w3.org/2000/svg">
<path d="M21.8877 6.18852C21.7417 3.70652 24.5047 2.13452 26.5637 3.52803L42.75 14.4843C45.203 16.1447 48.3163 16.4921 51.0748 15.4128L69.2767 8.2901C71.5922 7.38412 73.9412 9.5268 73.2519 11.9158L67.8336 30.6949C67.0126 33.5408 67.6448 36.6084 69.5236 38.8982L81.922 54.0086C83.4992 55.9307 82.188 58.8272 79.7032 58.9103L60.1679 59.5603C57.2074 59.6589 54.485 61.2078 52.8878 63.7025L42.3482 80.163C41.0075 82.257 37.848 81.9049 37.0014 79.567L30.346 61.1891C29.3374 58.4041 27.0234 56.2934 24.1574 55.5453L5.24588 50.6091C2.84006 49.9812 2.19829 46.8672 4.15994 45.3395L19.5821 33.3312C21.9192 31.5113 23.211 28.6575 23.0369 25.7005L21.8877 6.18852Z" stroke="white" stroke-width="6"/>
</svg>
