<svg preserveAspectRatio="none" width="100%" height="100%" overflow="visible" style="display: block;" viewBox="0 0 38.0253 38" fill="none" xmlns="http://www.w3.org/2000/svg">
<path id="Vector" d="M5.06667 0.0253333V5.092H0L5.06667 10.1587H8.10667L15.2 17.252L14.5667 19.152L22.1667 22.192L19.1267 14.592L17.2267 15.2253L10.1333 8.132V5.092L5.06667 0.0253333ZM19 0.0253333C15.9853 0.0253333 13.148 0.734667 10.6147 1.976L12.6667 4.028V6.58667C14.5667 5.624 16.72 5.06667 19 5.06667C26.7013 5.06667 32.9333 11.2987 32.9333 19C32.9333 26.7013 26.7013 32.9333 19 32.9333C11.2987 32.9333 5.06667 26.7013 5.06667 19C5.06667 16.72 5.624 14.5667 6.58667 12.6667H4.028L1.976 10.6147C0.553534 13.5116 -0.107886 16.723 0.0540718 19.9463C0.21603 23.1695 1.19603 26.2985 2.90172 29.0382C4.60742 31.778 6.98262 34.0383 9.80349 35.6062C12.6244 37.1741 15.798 37.9979 19.0253 38C29.5133 38 38.0253 29.488 38.0253 19C38.0253 8.512 29.5133 0 19.0253 0L19 0.0253333ZM19 8.892C17.6573 8.892 16.3907 9.14533 15.2 9.62667L18.316 12.7427C18.544 12.7173 18.772 12.7173 19 12.7173C20.6797 12.7173 22.2906 13.3846 23.4783 14.5723C24.6661 15.7601 25.3333 17.371 25.3333 19.0507C25.3333 20.7304 24.6661 22.3413 23.4783 23.529C22.2906 24.7167 20.6797 25.384 19 25.384C17.3203 25.384 15.7094 24.7167 14.5217 23.529C13.3339 22.3413 12.6667 20.7304 12.6667 19.0507C12.6667 18.8227 12.6667 18.5947 12.692 18.3667L9.576 15.2507C9.09467 16.416 8.84133 17.708 8.84133 19.0507C8.84133 24.6493 13.376 29.184 18.9747 29.184C24.5733 29.184 29.108 24.6493 29.108 19.0507C29.108 13.452 24.5733 8.91733 18.9747 8.91733L19 8.892Z" fill="var(--fill-0, white)"/>
</svg>
