<svg preserveAspectRatio="none" width="100%" height="100%" overflow="visible" style="display: block;" viewBox="0 0 32.8125 30.625" fill="none" xmlns="http://www.w3.org/2000/svg">
<path id="Vector" d="M2.1875 8.75V5.46875C2.1875 4.59851 2.5332 3.76391 3.14856 3.14856C3.76391 2.5332 4.59851 2.1875 5.46875 2.1875H10.0319C10.3214 2.18756 10.5991 2.30241 10.8041 2.50688L13.7659 5.46875L10.8041 8.43063C10.5991 8.63509 10.3214 8.74994 10.0319 8.75H2.1875ZM5.46875 3.37111e-07C4.01835 3.37111e-07 2.62735 0.576171 1.60176 1.60176C0.57617 2.62735 0 4.01835 0 5.46875V20.7812C0 22.2317 0.57617 23.6227 1.60176 24.6482C2.62735 25.6738 4.01835 26.25 5.46875 26.25H15.3956C15.3374 25.8884 15.3096 25.5225 15.3125 25.1562C15.3125 24.7815 15.349 24.4169 15.4219 24.0625H5.46875C4.59851 24.0625 3.76391 23.7168 3.14856 23.1014C2.5332 22.4861 2.1875 21.6515 2.1875 20.7812V10.9375H10.0319C10.9018 10.9367 11.7359 10.5905 12.3506 9.975L15.7653 6.5625H25.1562C25.9888 6.56231 26.7902 6.87857 27.3982 7.44721C28.0063 8.01585 28.3754 8.79435 28.4309 9.625C29.3118 10.132 30.0629 10.8366 30.625 11.6834V9.84375C30.625 8.39335 30.0488 7.00235 29.0232 5.97676C27.9977 4.95117 26.6067 4.375 25.1562 4.375H15.7653L12.3528 0.9625C12.0479 0.657198 11.6857 0.415036 11.2871 0.249877C10.8885 0.0847175 10.4612 -0.000195248 10.0297 3.37111e-07H5.46875ZM29.5312 15.3125C29.5312 16.4728 29.0703 17.5856 28.2498 18.4061C27.4294 19.2266 26.3166 19.6875 25.1562 19.6875C23.9959 19.6875 22.8831 19.2266 22.0627 18.4061C21.2422 17.5856 20.7812 16.4728 20.7812 15.3125C20.7812 14.1522 21.2422 13.0394 22.0627 12.2189C22.8831 11.3984 23.9959 10.9375 25.1562 10.9375C26.3166 10.9375 27.4294 11.3984 28.2498 12.2189C29.0703 13.0394 29.5313 14.1522 29.5312 15.3125ZM32.8125 25.1562C32.8125 27.8797 30.625 30.625 25.1562 30.625C19.6875 30.625 17.5 27.8906 17.5 25.1562C17.5 24.286 17.8457 23.4514 18.4611 22.8361C19.0764 22.2207 19.911 21.875 20.7812 21.875H29.5312C30.4015 21.875 31.2361 22.2207 31.8514 22.8361C32.4668 23.4514 32.8125 24.286 32.8125 25.1562Z" fill="var(--fill-0, white)"/>
</svg>
